<mxfile>
    <diagram id="1E2s3gXtmcNy7SrSM0DI" name="Page-1">
        <mxGraphModel dx="948" dy="624" grid="1" gridSize="10" guides="1" tooltips="1" connect="1" arrows="1" fold="1" page="1" pageScale="1" pageWidth="827" pageHeight="1169" math="0" shadow="0">
            <root>
                <mxCell id="0"/>
                <mxCell id="1" parent="0"/>
                <mxCell id="2" value="" style="rounded=0;whiteSpace=wrap;html=1;" parent="1" vertex="1">
                    <mxGeometry width="300" height="400" as="geometry"/>
                </mxCell>
                <mxCell id="7" value="" style="rounded=0;whiteSpace=wrap;html=1;" parent="1" vertex="1">
                    <mxGeometry y="30" width="300" height="300" as="geometry"/>
                </mxCell>
                <mxCell id="13" value="" style="shape=mxgraph.signs.people.man_1;html=1;pointerEvents=1;fillColor=#0050ef;strokeColor=#001DBC;verticalLabelPosition=bottom;verticalAlign=top;align=center;fontColor=#ffffff;" parent="1" vertex="1">
                    <mxGeometry x="150" y="6" width="20" height="18" as="geometry"/>
                </mxCell>
                <mxCell id="15" value="" style="dashed=0;verticalLabelPosition=bottom;verticalAlign=top;align=center;shape=mxgraph.gmdl.heart;strokeColor=#6F0000;fillColor=#a20025;shadow=0;fontColor=#ffffff;" parent="1" vertex="1">
                    <mxGeometry x="5" y="6" width="20" height="18" as="geometry"/>
                </mxCell>
                <mxCell id="16" value="" style="dashed=0;verticalLabelPosition=bottom;verticalAlign=top;align=center;shape=mxgraph.gmdl.heart;strokeColor=#6F0000;fillColor=#a20025;shadow=0;fontColor=#ffffff;" parent="1" vertex="1">
                    <mxGeometry x="25" y="6" width="20" height="18" as="geometry"/>
                </mxCell>
                <mxCell id="17" value="" style="dashed=0;verticalLabelPosition=bottom;verticalAlign=top;align=center;shape=mxgraph.gmdl.heart;strokeColor=#6F0000;fillColor=#a20025;shadow=0;fontColor=#ffffff;" parent="1" vertex="1">
                    <mxGeometry x="45" y="6" width="20" height="18" as="geometry"/>
                </mxCell>
                <mxCell id="18" value="" style="dashed=0;verticalLabelPosition=bottom;verticalAlign=top;align=center;shape=mxgraph.gmdl.heart;strokeColor=#6F0000;fillColor=#a20025;shadow=0;fontColor=#ffffff;" parent="1" vertex="1">
                    <mxGeometry x="65" y="6" width="20" height="18" as="geometry"/>
                </mxCell>
                <mxCell id="19" value="" style="dashed=0;verticalLabelPosition=bottom;verticalAlign=top;align=center;shape=mxgraph.gmdl.heart;strokeColor=#6F0000;fillColor=#a20025;shadow=0;fontColor=#ffffff;" parent="1" vertex="1">
                    <mxGeometry x="85" y="6" width="20" height="18" as="geometry"/>
                </mxCell>
            </root>
        </mxGraphModel>
    </diagram>
</mxfile>